<?xml version="1.0" standalone="no"?>
<!DOCTYPE svg PUBLIC "-//W3C//DTD SVG 20010904//EN"
 "http://www.w3.org/TR/2001/REC-SVG-20010904/DTD/svg10.dtd">
<svg version="1.0" xmlns="http://www.w3.org/2000/svg"
 width="792.000000pt" height="1224.000000pt" viewBox="0 0 792.000000 1224.000000"
 preserveAspectRatio="xMidYMid meet">
<metadata>
Created by potrace 1.15, written by Peter Selinger 2001-2017
</metadata>
<g transform="translate(0.000000,1224.000000) scale(0.100000,-0.100000)"
fill="#000000" stroke="none">
<path d="M3350 8244 c-243 -43 -434 -150 -574 -321 -107 -129 -181 -320 -192
-493 -8 -132 -3 -124 -90 -144 -94 -22 -230 -90 -303 -149 -250 -208 -312
-549 -149 -825 18 -30 67 -90 108 -132 89 -89 192 -148 321 -182 l84 -22 1345
-4 c866 -2 1390 0 1471 7 220 18 335 67 470 201 68 68 94 102 127 170 96 193
94 405 -5 593 -47 90 -145 190 -238 245 -104 61 -204 91 -392 118 -30 4 -37
13 -82 102 -136 263 -345 424 -615 471 -71 13 -233 14 -295 2 l-44 -9 -106
107 c-58 58 -132 121 -163 139 -207 122 -451 167 -678 126z m-29 -284 c143
-27 279 -132 349 -272 49 -98 64 -170 57 -278 -12 -204 -148 -376 -356 -451
-91 -33 -241 -33 -319 -1 -30 12 -58 20 -63 17 -5 -4 -9 -39 -9 -80 0 -85 0
-85 -101 -85 l-69 0 0 -69 c0 -103 2 -101 -96 -101 l-84 0 0 -85 0 -85 -195 0
-195 0 -11 28 c-7 18 -8 86 -2 217 l9 190 226 228 225 227 6 103 c9 161 54
264 161 365 120 113 297 164 467 132z m590 -586 c27 -25 25 -54 -5 -54 -13 0
-26 7 -30 15 -7 20 -66 20 -66 0 0 -9 12 -20 28 -26 80 -32 92 -40 98 -64 16
-65 -39 -114 -112 -100 -33 6 -74 46 -74 71 0 22 44 16 58 -7 18 -28 77 -24
77 6 0 14 -13 24 -50 38 -27 10 -56 25 -62 34 -28 36 -10 88 37 106 24 10 81
-1 101 -19z m300 0 c27 -25 25 -54 -5 -54 -13 0 -26 7 -30 15 -7 20 -66 20
-66 0 0 -9 12 -20 28 -26 80 -32 92 -40 98 -64 16 -65 -39 -114 -112 -100 -33
6 -74 46 -74 71 0 22 44 16 58 -7 18 -28 77 -24 77 6 0 14 -13 24 -50 38 -27
10 -56 25 -62 34 -28 36 -10 88 37 106 24 10 81 -1 101 -19z m229 -4 c0 -16
-7 -20 -35 -20 l-35 0 0 -100 0 -100 -25 0 -25 0 0 100 0 100 -30 0 c-23 0
-30 4 -30 20 0 19 7 20 90 20 83 0 90 -1 90 -20z m210 0 c0 -18 -7 -20 -65
-20 -63 0 -65 -1 -65 -25 0 -24 3 -25 61 -25 57 0 60 -1 57 -22 -3 -20 -10
-23 -60 -26 -57 -3 -58 -4 -58 -32 l0 -30 65 0 c58 0 65 -2 65 -20 0 -19 -7
-20 -90 -20 l-90 0 0 120 0 120 90 0 c83 0 90 -1 90 -20z m125 -57 l18 -78 20
78 19 77 39 0 39 0 0 -120 0 -120 -25 0 c-24 0 -25 2 -26 78 l-1 77 -20 -77
c-18 -69 -23 -78 -44 -78 -18 0 -25 8 -33 38 -29 113 -29 112 -30 35 -1 -71
-2 -73 -26 -73 l-25 0 0 120 0 120 38 0 38 0 19 -77z m336 -27 c56 -143 55
-136 24 -136 -18 0 -28 7 -35 25 -8 22 -16 25 -55 25 -39 0 -47 -3 -55 -25 -7
-18 -17 -25 -35 -25 -14 0 -25 2 -25 4 0 5 81 220 87 229 3 4 16 7 30 5 22 -3
31 -16 64 -102z m-1622 -337 c17 -6 38 -24 46 -39 13 -26 13 -28 -7 -34 -15
-3 -29 2 -41 14 -41 45 -87 14 -87 -60 0 -77 49 -107 87 -54 17 23 22 25 41
15 17 -9 20 -16 13 -29 -46 -86 -160 -71 -192 25 -25 76 27 168 97 172 6 1 25
-4 43 -10z m672 -15 c27 -25 25 -54 -5 -54 -13 0 -26 7 -30 15 -7 20 -66 20
-66 0 0 -9 12 -20 28 -26 80 -32 92 -40 98 -64 16 -65 -39 -114 -112 -100 -33
6 -74 46 -74 71 0 22 44 16 58 -7 18 -28 77 -24 77 6 0 14 -13 24 -50 38 -27
10 -56 25 -62 34 -28 36 -10 88 37 106 24 10 81 -1 101 -19z m568 15 c17 -6
38 -24 46 -39 13 -26 13 -28 -7 -34 -15 -3 -29 2 -41 14 -41 45 -87 14 -87
-60 0 -77 49 -107 87 -54 17 23 22 25 41 15 17 -9 20 -16 13 -29 -46 -86 -160
-71 -192 25 -25 76 27 168 97 172 6 1 25 -4 43 -10z m716 -5 c59 -27 82 -111
50 -179 -32 -67 -124 -81 -178 -26 -28 28 -32 37 -32 91 0 51 4 63 29 89 26
27 44 36 84 40 8 0 29 -6 47 -15z m-1815 -94 l0 -100 59 0 c33 0 61 -5 63 -10
2 -6 21 38 43 97 39 104 42 108 70 108 28 0 31 -5 72 -110 23 -60 42 -113 43
-117 0 -5 -11 -8 -25 -8 -18 0 -28 7 -35 25 -8 22 -16 25 -55 25 -39 0 -47 -3
-55 -25 -9 -25 -11 -25 -120 -25 l-110 0 0 120 0 120 25 0 25 0 0 -100z m840
80 c0 -18 -7 -20 -55 -20 -54 0 -55 0 -55 -30 0 -29 1 -30 50 -30 43 0 50 -3
50 -20 0 -17 -7 -20 -50 -20 l-50 0 0 -50 c0 -47 -2 -50 -25 -50 l-25 0 0 120
0 120 80 0 c73 0 80 -2 80 -20z m527 -95 c23 -60 42 -113 43 -117 0 -5 -11 -8
-25 -8 -18 0 -28 7 -35 25 -8 22 -16 25 -55 25 -39 0 -47 -3 -55 -25 -7 -18
-17 -25 -35 -25 -14 0 -25 2 -25 4 0 5 81 220 87 229 3 4 17 7 31 5 23 -3 31
-15 69 -113z m228 91 c28 -28 40 -81 30 -132 -3 -20 -17 -47 -30 -60 -21 -21
-34 -24 -95 -24 l-70 0 0 120 0 120 70 0 c61 0 74 -3 95 -24z m487 7 c32 -29
16 -113 -23 -113 -6 0 1 -15 14 -32 14 -18 30 -43 36 -55 11 -21 10 -23 -18
-23 -23 0 -34 8 -51 35 -51 82 -80 88 -80 15 0 -47 -2 -50 -25 -50 l-25 0 0
120 0 120 77 0 c57 0 81 -4 95 -17z m-1063 -394 c17 -6 38 -24 46 -39 13 -26
13 -28 -7 -34 -15 -3 -29 2 -41 14 -41 45 -87 14 -87 -60 0 -77 48 -106 89
-54 17 21 23 24 41 14 41 -22 -20 -85 -81 -84 -94 3 -141 128 -77 209 33 42
65 52 117 34z m786 -5 c59 -27 82 -111 50 -179 -32 -67 -124 -81 -178 -26 -28
28 -32 37 -32 91 0 51 4 63 29 89 26 27 44 36 84 40 8 0 29 -6 47 -15z m246
-10 c27 -25 25 -54 -5 -54 -13 0 -26 7 -30 15 -7 20 -66 20 -66 0 0 -9 12 -20
28 -26 80 -32 92 -40 98 -64 16 -65 -39 -114 -112 -100 -33 6 -74 46 -74 71 0
22 44 16 58 -7 18 -28 77 -24 77 6 0 14 -13 24 -50 38 -27 10 -56 25 -62 34
-28 36 -10 88 37 106 24 10 81 -1 101 -19z m-1986 -8 c28 -28 40 -81 30 -132
-3 -20 -17 -47 -30 -60 -21 -21 -34 -24 -95 -24 l-70 0 0 120 0 120 70 0 c61
0 74 -3 95 -24z m245 4 c0 -18 -7 -20 -65 -20 -63 0 -65 -1 -65 -25 0 -24 3
-25 61 -25 57 0 60 -1 57 -22 -3 -20 -10 -23 -60 -26 -57 -3 -58 -4 -58 -32
l0 -30 65 0 c58 0 65 -2 65 -20 0 -19 -7 -20 -90 -20 l-90 0 0 120 0 120 90 0
c83 0 90 -1 90 -20z m277 -95 c23 -60 42 -113 43 -117 0 -5 -11 -8 -25 -8 -18
0 -28 7 -35 25 -8 22 -16 25 -55 25 -39 0 -47 -3 -55 -25 -7 -18 -17 -25 -35
-25 -14 0 -25 2 -25 4 0 5 81 220 87 229 3 4 17 7 31 5 23 -3 31 -15 69 -113z
m235 98 c32 -29 16 -113 -23 -113 -6 0 1 -15 14 -32 14 -18 30 -43 36 -55 11
-21 10 -23 -18 -23 -23 0 -34 8 -51 35 -51 82 -80 88 -80 15 0 -47 -2 -50 -25
-50 l-25 0 0 120 0 120 77 0 c57 0 81 -4 95 -17z m348 -28 l0 -45 45 0 45 0 0
45 c0 41 2 45 25 45 l25 0 0 -120 0 -120 -25 0 c-23 0 -25 3 -25 50 l0 50 -45
0 -45 0 0 -50 c0 -47 -2 -50 -25 -50 l-25 0 0 120 0 120 25 0 c23 0 25 -4 25
-45z m331 -40 c30 -89 28 -90 65 28 16 50 21 57 44 57 l26 0 -40 -120 c-39
-113 -43 -120 -68 -120 -20 0 -29 7 -38 33 -20 55 -70 201 -70 205 0 2 12 2
27 0 23 -3 29 -12 54 -83z"/>
<path d="M5357 6895 c-23 -23 -30 -71 -15 -101 41 -84 132 -35 114 61 -10 51
-66 74 -99 40z"/>
<path d="M5347 6485 c-23 -23 -30 -71 -15 -101 41 -84 132 -35 114 61 -10 51
-66 74 -99 40z"/>
</g>
</svg>
